<?xml version="1.0" encoding="utf-8"?>
<!-- Generator: Adobe Illustrator 18.1.0, SVG Export Plug-In . SVG Version: 6.00 Build 0)  -->
<svg version="1.1" id="Layer_1" xmlns="http://www.w3.org/2000/svg" xmlns:xlink="http://www.w3.org/1999/xlink" x="0px" y="0px"
	 viewBox="0 0 46 46" enable-background="new 0 0 46 46" xml:space="preserve">
<g>
	<g>
		<path fill="#E7E7E7" d="M23,44.8C11,44.8,1.2,35,1.2,23C1.2,11,11,1.2,23,1.2C35,1.2,44.8,11,44.8,23C44.8,35,35,44.8,23,44.8z
			 M23,3C12,3,3,12,3,23c0,11,9,20,20,20c11,0,20-9,20-20C43,12,34,3,23,3z"/>
	</g>
	<g>
		
			<rect x="12.2" y="22.2" transform="matrix(0.7324 0.6808 -0.6808 0.7324 22.2063 -9.4846)" fill="#4E4E4E" width="22" height="2.7"/>
	</g>
	<g>
		
			<rect x="21.8" y="12.5" transform="matrix(0.6809 0.7324 -0.7324 0.6809 24.6105 -9.4672)" fill="#4E4E4E" width="2.7" height="22"/>
	</g>
</g>
</svg>
